<svg version="1.1" id="Layer_1" xmlns="http://www.w3.org/2000/svg" xmlns:xlink="http://www.w3.org/1999/xlink" x="0px" y="0px"
	 width="100%" viewBox="0 0 150 150" enable-background="new 0 0 150 150" xml:space="preserve">
<path fill="#000000" opacity="1.000000" stroke="none" 
	d="
M151.000000,63.000000 
	C151.000000,92.666664 151.000000,121.833336 151.000000,151.000000 
	C101.000000,151.000000 51.000000,151.000000 1.000000,151.000000 
	C1.000000,101.000000 1.000000,51.000000 1.000000,1.000000 
	C51.000000,1.000000 101.000000,1.000000 151.000000,1.000000 
	C151.000000,21.500000 151.000000,42.000000 151.000000,63.000000 
M138.553925,116.805519 
	C139.044983,115.868248 139.536026,114.930984 139.929031,113.222748 
	C140.289612,111.491028 140.650192,109.759315 141.633133,108.248627 
	C141.889847,108.933311 142.146561,109.617996 142.403275,110.302689 
	C142.730957,110.281158 143.058655,110.259628 143.386337,110.238106 
	C143.642471,105.474213 143.898605,100.710327 144.425430,95.284027 
	C144.629044,93.880821 144.832672,92.477615 145.770599,90.925201 
	C146.112320,89.611900 146.454056,88.298607 147.051376,86.463860 
	C146.976547,85.646812 146.901733,84.829773 146.959518,83.118294 
	C146.616196,79.422752 146.272873,75.727203 145.881149,71.279358 
	C145.788071,70.531586 145.695007,69.783813 145.764557,68.369553 
	C143.969513,62.411339 142.462799,56.346031 140.300415,50.524250 
	C138.018005,44.379219 135.792892,38.035732 130.000900,33.998379 
	C130.000900,33.998379 129.975723,34.012566 129.936630,33.361401 
	C129.890320,32.721333 129.844009,32.081264 129.789810,31.332188 
	C129.113464,31.619318 128.539978,31.862787 127.631851,31.543745 
	C126.672752,30.689772 125.713661,29.835798 124.773849,28.541304 
	C124.610512,28.221924 124.360283,28.123585 123.301697,28.024952 
	C120.856331,27.112747 118.410965,26.200542 115.093330,25.155079 
	C108.590714,24.736912 102.407776,25.250397 97.418808,31.268211 
	C96.625938,32.544590 95.833076,33.820969 94.435806,35.105068 
	C93.881462,34.885078 93.327110,34.665092 92.501083,33.988682 
	C92.267403,33.514782 92.033714,33.040886 91.979134,31.971567 
	C93.413727,28.356886 93.693428,24.590158 90.471977,22.042217 
	C86.927017,19.238400 84.985588,22.717472 82.994118,24.997173 
	C82.994118,24.997173 82.963150,24.938412 82.355896,25.000347 
	C81.899200,25.322521 81.442505,25.644695 80.493896,26.029165 
	C80.493896,26.029165 80.015724,26.160316 79.345352,26.051455 
	C79.044479,26.712721 78.743607,27.373985 78.270439,28.894724 
	C78.251770,30.935781 78.233101,32.976837 78.068596,35.877796 
	C77.462860,41.217110 76.857117,46.556419 76.099243,52.499954 
	C76.064491,53.328785 76.029747,54.157616 75.468803,55.122753 
	C75.386353,55.443958 75.303894,55.765163 74.832352,56.670307 
	C73.113235,57.794361 71.394112,58.918411 69.674995,60.042465 
	C69.888168,59.601456 70.101341,59.160450 70.314514,58.719444 
	C65.831856,55.607796 61.478458,52.276482 56.788666,49.516857 
	C55.361015,48.676785 52.573883,48.697212 51.154419,49.555576 
	C46.217754,52.540848 41.608032,56.066780 36.253021,59.122932 
	C34.829983,58.092422 33.406944,57.061913 31.741257,55.414330 
	C29.810072,53.616032 27.878887,51.817738 25.733686,49.394688 
	C24.461205,47.940254 23.188723,46.485817 21.869299,44.245842 
	C22.188343,41.160244 22.507387,38.074646 22.967840,34.515961 
	C22.967840,34.515961 23.034843,34.026760 23.008900,34.067223 
	C23.008900,34.067223 23.055731,34.078041 23.623684,33.710114 
	C24.743896,32.126904 25.864109,30.543695 27.595846,28.759514 
	C28.698788,27.538664 29.801729,26.317816 31.577219,24.845819 
	C33.712852,24.246401 35.848488,23.646982 38.089188,23.863979 
	C38.114063,27.917181 38.138939,31.970385 37.853493,36.650780 
	C36.870399,38.092533 35.887310,39.534286 34.958767,40.896046 
	C38.149391,44.846256 41.630421,45.831886 42.975571,43.081112 
	C44.498043,39.967720 45.078533,36.393692 46.497025,32.782284 
	C46.114742,32.020882 45.732460,31.259481 45.712879,29.815086 
	C45.707043,29.557379 45.701206,29.299669 45.879639,28.478729 
	C46.620197,23.164263 42.323399,22.080202 38.263371,19.890882 
	C35.186974,19.230501 32.110577,18.570120 28.597237,17.307877 
	C26.727697,17.521799 24.858160,17.735722 22.237682,18.024910 
	C21.503347,18.166866 20.769011,18.308821 19.426907,18.329124 
	C18.931955,18.543388 18.437006,18.757652 17.398941,19.060337 
	C16.541712,19.775093 15.684484,20.489849 14.103004,21.600712 
	C12.723768,23.447525 11.344533,25.294338 9.291103,27.485964 
	C5.794438,37.354576 6.586422,47.292828 11.497013,56.107304 
	C16.044466,64.269958 22.431276,71.407898 28.028307,79.641296 
	C28.375559,80.084862 28.722811,80.528419 29.445267,81.543861 
	C31.348297,83.679268 33.251328,85.814682 35.294865,88.563164 
	C35.865734,89.371048 36.436604,90.178925 36.999138,91.000305 
	C36.999138,91.000305 37.012653,90.993164 37.063438,91.726395 
	C39.130634,95.808792 41.197834,99.891182 43.173420,104.897179 
	C42.861450,108.575882 42.549477,112.254593 42.216858,116.012978 
	C42.216858,116.012978 42.285988,116.000374 42.063633,116.380928 
	C41.925549,116.640770 41.804016,116.908142 41.147007,117.043350 
	C40.844730,117.363510 40.542458,117.683678 40.031155,118.560097 
	C39.257690,119.439690 38.484226,120.319283 37.064796,121.505386 
	C36.378506,121.461830 35.313423,121.111702 35.063103,121.420990 
	C31.651098,125.636696 27.451456,124.362717 23.479431,122.896774 
	C22.086456,122.382668 20.007563,120.096725 20.275671,119.355659 
	C21.305576,116.508965 20.601332,111.685646 24.800329,111.563995 
	C29.125605,111.438683 29.282013,109.639778 28.563383,105.100349 
	C24.842560,105.447792 20.464409,104.661926 17.523958,106.362297 
	C9.697536,110.888069 9.708340,121.983589 16.966122,127.764961 
	C24.004742,133.371735 31.951145,135.990417 41.710899,134.762192 
	C43.470661,134.136566 45.230423,133.510941 47.730740,132.956467 
	C48.824497,132.653503 49.918259,132.350540 51.602474,131.750122 
	C53.404507,129.840775 55.206543,127.931427 57.678955,125.735313 
	C58.812946,123.499771 59.946938,121.264236 61.713730,118.652374 
	C62.421795,117.359749 64.066925,115.527649 63.684261,114.862968 
	C61.381573,110.863213 63.484829,107.555305 65.087975,103.445099 
	C67.718613,101.571144 70.349251,99.697197 73.725220,98.249451 
	C73.873505,99.565239 73.941063,100.896103 74.183655,102.194275 
	C75.426010,108.842537 75.332909,115.751167 79.187683,121.837654 
	C83.288910,128.313248 86.114235,129.322418 93.009285,125.991592 
	C93.009285,123.862701 92.914238,121.913696 93.025757,119.976570 
	C93.504799,111.654800 94.044579,103.336533 94.760918,94.125244 
	C94.757919,91.086136 94.754929,88.047028 94.919609,84.273651 
	C94.970535,83.523109 95.021461,82.772575 95.490715,82.019791 
	C95.490715,82.019791 95.897980,82.115364 95.993378,83.033997 
	C95.993378,90.446526 95.993378,97.859055 95.993378,105.271584 
	C96.448509,105.261070 96.903641,105.250549 97.358772,105.240028 
	C96.957588,96.829201 96.556404,88.418365 96.050156,79.562134 
	C96.050156,79.562134 95.952187,79.115120 96.535194,78.865891 
	C99.089912,76.496872 97.138832,75.744057 95.196091,74.323616 
	C95.179466,72.881882 95.162842,71.440147 95.813530,69.922401 
	C98.665405,68.843445 98.660828,67.529640 95.952423,65.349335 
	C95.894272,64.897064 95.836121,64.444801 95.962822,63.089638 
	C95.654205,59.214931 95.236176,55.345104 95.063217,51.464352 
	C94.818207,45.967190 94.367561,40.360527 99.736778,36.014099 
	C100.179405,35.357235 100.622032,34.700371 101.005196,34.003937 
	C101.005196,34.003937 101.044571,34.063511 101.794075,33.972305 
	C105.271294,29.709194 109.635582,30.777397 114.432159,32.482868 
	C119.022911,37.868408 124.148193,42.941841 124.173630,50.809658 
	C124.176155,51.590721 125.449944,52.367672 126.091965,53.902771 
	C126.173470,54.400246 126.254974,54.897720 126.214592,56.141956 
	C126.486504,57.096142 126.758415,58.050323 127.031540,59.913986 
	C127.127647,62.947483 127.223755,65.980980 127.183235,69.862740 
	C127.187050,71.580971 127.190857,73.299194 127.024994,75.921173 
	C126.758987,81.619576 126.492973,87.317970 126.085350,93.839241 
	C125.718552,96.880455 125.351746,99.921669 124.382729,103.319748 
	C123.978516,104.553642 123.574310,105.787529 123.098976,107.850380 
	C122.539139,110.905525 121.979294,113.960663 121.210793,117.788391 
	C119.143883,121.873596 117.076981,125.958801 114.311867,130.222366 
	C109.138023,132.063232 108.652267,126.854225 105.862984,125.264229 
	C107.567581,123.165932 108.932457,121.485817 111.294586,118.578125 
	C107.864319,116.818260 105.133308,114.356323 102.468956,114.426453 
	C100.718323,114.472527 97.800484,118.087631 97.653549,120.256744 
	C97.415115,123.776527 98.238594,127.880363 100.018356,130.913483 
	C103.282967,136.477142 112.180397,137.813217 120.666107,134.798508 
	C122.771477,133.409653 124.876846,132.020798 127.645264,130.596619 
	C129.434753,128.742630 131.224258,126.888634 133.557114,124.848038 
	C133.975372,124.215645 134.393616,123.583252 135.530502,122.736122 
	C136.344666,120.819489 137.158844,118.902863 137.978806,117.013008 
	C137.978806,117.013008 138.005783,117.008423 138.553925,116.805519 
M120.479523,42.812943 
	C120.590294,42.716110 120.781845,42.624901 120.789085,42.520863 
	C120.796295,42.417328 120.623604,42.219540 120.520210,42.212933 
	C120.415833,42.206261 120.299690,42.383572 120.479523,42.812943 
M122.187050,47.479527 
	C122.394653,47.493572 122.602249,47.507618 122.809853,47.521667 
	C122.713142,47.410675 122.616432,47.299686 122.187050,47.479527 
z"/>
<path fill="#FE0202" opacity="1.000000" stroke="none" 
	d="
M72.979889,97.823242 
	C70.349251,99.697197 67.718613,101.571144 64.586502,103.713425 
	C61.899914,104.491753 60.696491,104.017555 59.384514,101.716324 
	C57.126999,97.756607 53.940407,94.326584 50.993225,90.386421 
	C48.251358,87.686592 45.660015,85.274590 42.940636,82.547218 
	C41.133717,78.157753 39.454834,74.083641 37.877434,69.615219 
	C38.019367,65.897049 40.924915,62.251255 36.873978,59.387108 
	C41.608032,56.066780 46.217754,52.540848 51.154419,49.555576 
	C52.573883,48.697212 55.361015,48.676785 56.788666,49.516857 
	C61.478458,52.276482 65.831856,55.607796 70.314514,58.719444 
	C70.101341,59.160450 69.888168,59.601456 69.674995,60.042465 
	C71.394112,58.918411 73.113235,57.794361 75.206543,56.393631 
	C75.580727,56.116959 75.939888,56.153725 75.938232,56.584297 
	C75.896103,59.311661 75.855621,61.608448 75.634293,64.280533 
	C75.257736,69.248955 75.192474,73.852249 74.834976,78.432739 
	C74.329834,84.905067 73.608696,91.360558 72.979889,97.823242 
z"/>
<path fill="#B3B2B2" opacity="1.000000" stroke="none" 
	d="
M73.352554,98.036346 
	C73.608696,91.360558 74.329834,84.905067 74.834976,78.432739 
	C75.192474,73.852249 75.257736,69.248955 75.869408,64.551292 
	C80.609688,73.467964 84.788628,82.564514 89.389229,91.442566 
	C90.240959,93.086220 92.794266,93.848122 94.562225,95.016983 
	C94.044579,103.336533 93.504799,111.654800 93.025757,119.976570 
	C92.914238,121.913696 93.009285,123.862701 93.009285,125.991592 
	C86.114235,129.322418 83.288910,128.313248 79.187683,121.837654 
	C75.332909,115.751167 75.426010,108.842537 74.183655,102.194275 
	C73.941063,100.896103 73.873505,99.565239 73.352554,98.036346 
z"/>
<path fill="#9C9C9C" opacity="1.000000" stroke="none" 
	d="
M28.008104,78.997086 
	C22.431276,71.407898 16.044466,64.269958 11.497013,56.107304 
	C6.586422,47.292828 5.794438,37.354576 9.980562,27.584650 
	C11.985213,29.501047 13.228717,31.376629 14.636039,33.119968 
	C16.005131,34.815948 17.542046,36.376457 19.007812,38.391411 
	C19.978985,40.868046 20.947615,42.949711 21.916243,45.031380 
	C23.188723,46.485817 24.461205,47.940254 25.556858,49.907818 
	C25.455374,52.684155 24.922085,55.189251 25.709150,57.169590 
	C29.557835,66.853310 33.855595,76.358337 37.722839,86.035141 
	C38.259758,87.378632 37.286697,89.325577 37.012653,90.993164 
	C37.012653,90.993164 36.999138,91.000305 36.989368,90.666199 
	C36.371185,89.538094 35.762772,88.744087 35.154358,87.950089 
	C33.251328,85.814682 31.348297,83.679268 29.393837,81.056816 
	C28.897640,80.045540 28.452871,79.521317 28.008104,78.997086 
z"/>
<path fill="#707070" opacity="1.000000" stroke="none" 
	d="
M124.754562,28.981827 
	C125.713661,29.835798 126.672752,30.689772 127.891068,32.107128 
	C128.758759,33.117867 129.367249,33.565216 129.975723,34.012566 
	C129.975723,34.012566 130.000900,33.998379 129.990784,34.435272 
	C131.181702,46.900471 137.093338,57.095303 142.751205,67.366684 
	C143.207565,68.195183 144.628983,68.492104 145.601944,69.036041 
	C145.695007,69.783813 145.788071,70.531586 145.694916,71.998749 
	C145.948105,76.482994 146.387497,80.247864 146.826904,84.012726 
	C146.901733,84.829773 146.976547,85.646812 146.628479,86.850113 
	C145.782928,88.172646 145.360291,89.108932 144.619751,89.924744 
	C141.859802,85.343025 139.457413,80.859489 136.965881,76.426048 
	C133.690750,70.598236 130.345459,64.809845 127.030327,59.004505 
	C126.758415,58.050323 126.486504,57.096142 126.512115,55.551064 
	C126.584320,54.355629 126.359016,53.751083 126.133713,53.146530 
	C125.449944,52.367672 124.176155,51.590721 124.173630,50.809658 
	C124.148193,42.941841 119.022911,37.868408 114.222092,31.836607 
	C114.663216,29.223009 115.314407,27.255672 115.965599,25.288336 
	C118.410965,26.200542 120.856331,27.112747 123.763565,28.277760 
	C124.377113,28.709938 124.553490,28.860359 124.754562,28.981827 
z"/>
<path fill="#B1B1B1" opacity="1.000000" stroke="none" 
	d="
M40.994015,134.829819 
	C31.951145,135.990417 24.004742,133.371735 16.966122,127.764961 
	C9.708340,121.983589 9.697536,110.888069 17.523958,106.362297 
	C20.464409,104.661926 24.842560,105.447792 28.563383,105.100349 
	C29.282013,109.639778 29.125605,111.438683 24.800329,111.563995 
	C20.601332,111.685646 21.305576,116.508965 20.275671,119.355659 
	C20.007563,120.096725 22.086456,122.382668 23.479431,122.896774 
	C27.451456,124.362717 31.651098,125.636696 35.063103,121.420990 
	C35.313423,121.111702 36.378506,121.461830 37.442108,121.798218 
	C38.877621,126.337303 39.935818,130.583557 40.994015,134.829819 
z"/>
<path fill="#969696" opacity="1.000000" stroke="none" 
	d="
M37.038048,91.359779 
	C37.286697,89.325577 38.259758,87.378632 37.722839,86.035141 
	C33.855595,76.358337 29.557835,66.853310 25.709150,57.169590 
	C24.922085,55.189251 25.455374,52.684155 25.663868,50.220196 
	C27.878887,51.817738 29.810072,53.616032 31.711220,56.054825 
	C30.883944,62.011086 33.393799,67.493950 37.775948,70.009537 
	C39.454834,74.083641 41.133717,78.157753 42.925484,82.965668 
	C43.364944,85.644295 43.313377,87.754929 44.081352,89.506180 
	C48.134224,98.748199 52.155769,108.020538 56.724514,117.009766 
	C58.118610,119.752708 58.710262,121.707283 56.454430,124.050308 
	C55.073620,123.283943 53.590908,122.814659 53.069435,121.834145 
	C49.750259,115.593262 46.643066,109.239632 43.689899,103.368202 
	C44.001781,102.923813 43.633408,103.448700 43.265030,103.973579 
	C41.197834,99.891182 39.130634,95.808792 37.038048,91.359779 
z"/>
<path fill="#A8A8A8" opacity="1.000000" stroke="none" 
	d="
M76.251381,51.895733 
	C76.857117,46.556419 77.462860,41.217110 78.455414,35.607193 
	C82.273392,43.516468 85.552879,51.766048 89.255394,59.821190 
	C90.057961,61.567230 92.379532,62.615063 94.001228,63.991631 
	C94.001007,63.998775 94.010422,64.000145 94.001694,64.457932 
	C93.959381,68.305138 93.925804,71.694565 93.814575,75.177841 
	C93.638687,75.518509 93.691360,75.734818 93.911110,76.278229 
	C93.922371,77.113045 93.917458,77.590248 93.831772,78.165710 
	C93.649727,78.522232 93.706314,78.747704 93.921577,79.224823 
	C93.918518,79.698837 93.914627,79.888412 93.768730,80.246307 
	C93.738564,80.938629 93.850403,81.462639 94.239647,81.999741 
	C94.702164,82.015892 94.887283,82.018959 95.072395,82.022034 
	C95.021461,82.772575 94.970535,83.523109 94.505058,84.560875 
	C91.788803,81.579750 89.085579,78.518806 87.268089,75.000336 
	C83.354263,67.423592 79.896057,59.611504 76.251381,51.895733 
z"/>
<path fill="#A09B9B" opacity="1.000000" stroke="none" 
	d="
M94.001450,63.984489 
	C92.379532,62.615063 90.057961,61.567230 89.255394,59.821190 
	C85.552879,51.766048 82.273392,43.516468 78.528336,35.177246 
	C78.233101,32.976837 78.251770,30.935781 78.597282,28.369122 
	C79.287994,27.282452 79.651855,26.721384 80.015724,26.160316 
	C80.015724,26.160316 80.493896,26.029165 80.934280,26.155155 
	C81.904160,25.833569 82.433655,25.385992 82.963150,24.938414 
	C82.963150,24.938412 82.994118,24.997173 83.331551,25.033348 
	C84.663353,26.435181 85.469643,28.010798 86.700020,29.112997 
	C88.215363,30.470467 90.084053,31.433489 91.800034,32.566986 
	C92.033714,33.040886 92.267403,33.514782 92.478241,34.621613 
	C92.360748,36.108467 92.266098,36.962391 92.164421,38.245567 
	C92.772079,47.111374 93.386765,55.547932 94.001450,63.984489 
z"/>
<path fill="#ADADAD" opacity="1.000000" stroke="none" 
	d="
M119.977036,134.782791 
	C112.180397,137.813217 103.282967,136.477142 100.018356,130.913483 
	C98.238594,127.880363 97.415115,123.776527 97.653549,120.256744 
	C97.800484,118.087631 100.718323,114.472527 102.468956,114.426453 
	C105.133308,114.356323 107.864319,116.818260 111.294586,118.578125 
	C108.932457,121.485817 107.567581,123.165932 105.862984,125.264229 
	C108.652267,126.854225 109.138023,132.063232 114.740112,130.378784 
	C116.771255,131.951050 118.374146,133.366928 119.977036,134.782791 
z"/>
<path fill="#7C7C7C" opacity="1.000000" stroke="none" 
	d="
M127.194672,75.017426 
	C127.190857,73.299194 127.187050,71.580971 127.586472,69.484100 
	C128.892807,70.182961 130.054657,71.133560 130.655762,72.359177 
	C133.864288,78.901283 136.816208,85.571709 140.133469,92.056252 
	C140.937271,93.627502 142.786331,94.664032 144.154739,95.946442 
	C143.898605,100.710327 143.642471,105.474213 143.386337,110.238106 
	C143.058655,110.259628 142.730957,110.281158 142.403275,110.302689 
	C142.146561,109.617996 141.889847,108.933311 141.288071,107.774246 
	C140.885849,106.975441 140.920609,106.593269 140.758255,106.334946 
	C135.009750,97.187775 128.897751,88.201073 128.738754,76.759758 
	C128.730591,76.171944 127.732086,75.597893 127.194672,75.017426 
z"/>
<path fill="#AEAEAE" opacity="1.000000" stroke="none" 
	d="
M76.175308,52.197845 
	C79.896057,59.611504 83.354263,67.423592 87.268089,75.000336 
	C89.085579,78.518806 91.788803,81.579750 94.421219,84.928009 
	C94.754929,88.047028 94.757919,91.086136 94.661575,94.571114 
	C92.794266,93.848122 90.240959,93.086220 89.389229,91.442566 
	C84.788628,82.564514 80.609688,73.467964 76.050247,64.175995 
	C75.855621,61.608448 75.896103,59.311661 75.959969,56.292786 
	C75.987228,55.375946 75.991112,55.181198 75.995003,54.986446 
	C76.029747,54.157616 76.064491,53.328785 76.175308,52.197845 
z"/>
<path fill="#868686" opacity="1.000000" stroke="none" 
	d="
M127.109833,75.469299 
	C127.732086,75.597893 128.730591,76.171944 128.738754,76.759758 
	C128.897751,88.201073 135.009750,97.187775 140.758255,106.334946 
	C140.920609,106.593269 140.885849,106.975441 140.976898,107.663727 
	C140.650192,109.759315 140.289612,111.491028 139.631409,113.600212 
	C138.870911,113.986504 138.408035,113.995338 137.611938,113.919678 
	C136.077866,112.339401 134.561035,110.999077 133.734497,109.319130 
	C131.094177,103.952690 128.710022,98.460197 126.226959,93.016373 
	C126.492973,87.317970 126.758987,81.619576 127.109833,75.469299 
z"/>
<path fill="#8F8E8E" opacity="1.000000" stroke="none" 
	d="
M56.796989,124.111008 
	C58.710262,121.707283 58.118610,119.752708 56.724514,117.009766 
	C52.155769,108.020538 48.134224,98.748199 44.081352,89.506180 
	C43.313377,87.754929 43.364944,85.644295 43.053520,83.281029 
	C45.660015,85.274590 48.251358,87.686592 50.967846,90.800690 
	C51.509407,93.256790 51.738148,95.082321 52.374538,96.752518 
	C55.213062,104.202148 58.168034,111.607407 61.080933,119.028702 
	C59.946938,121.264236 58.812946,123.499771 57.302727,125.560417 
	C56.883331,124.960686 56.840160,124.535843 56.796989,124.111008 
z"/>
<path fill="#676767" opacity="1.000000" stroke="none" 
	d="
M145.683258,68.702797 
	C144.628983,68.492104 143.207565,68.195183 142.751205,67.366684 
	C137.093338,57.095303 131.181702,46.900471 129.983429,34.447586 
	C135.792892,38.035732 138.018005,44.379219 140.300415,50.524250 
	C142.462799,56.346031 143.969513,62.411339 145.683258,68.702797 
z"/>
<path fill="#797979" opacity="1.000000" stroke="none" 
	d="
M144.290085,95.615234 
	C142.786331,94.664032 140.937271,93.627502 140.133469,92.056252 
	C136.816208,85.571709 133.864288,78.901283 130.655762,72.359177 
	C130.054657,71.133560 128.892807,70.182961 127.654785,69.059967 
	C127.223755,65.980980 127.127647,62.947483 127.030930,59.459244 
	C130.345459,64.809845 133.690750,70.598236 136.965881,76.426048 
	C139.457413,80.859489 141.859802,85.343025 144.643066,90.181976 
	C145.001617,90.731262 145.018951,90.902840 145.036285,91.074409 
	C144.832672,92.477615 144.629044,93.880821 144.290085,95.615234 
z"/>
<path fill="#969696" opacity="1.000000" stroke="none" 
	d="
M133.013748,125.034637 
	C131.224258,126.888634 129.434753,128.742630 127.402618,130.296432 
	C129.330322,125.669388 125.995369,118.128410 121.419449,117.015808 
	C121.979294,113.960663 122.539139,110.905525 123.409149,107.337791 
	C124.153679,106.222183 124.588028,105.619171 125.239967,105.275772 
	C128.304153,110.689476 131.150772,115.843582 133.967560,121.331192 
	C133.893768,122.108978 133.849808,122.553253 133.628281,123.211609 
	C133.305054,123.962006 133.159409,124.498322 133.013748,125.034637 
z"/>
<path fill="#9F9F9F" opacity="1.000000" stroke="none" 
	d="
M56.454430,124.050308 
	C56.840160,124.535843 56.883331,124.960686 56.967541,125.703796 
	C55.206543,127.931427 53.404507,129.840775 51.298840,131.593567 
	C50.978836,131.234070 50.962463,131.031128 50.876041,130.480865 
	C48.291348,125.194054 48.100464,118.852402 42.237503,115.933296 
	C42.549477,112.254593 42.861450,108.575882 43.219227,104.435379 
	C43.633408,103.448700 44.001781,102.923813 43.689899,103.368202 
	C46.643066,109.239632 49.750259,115.593262 53.069435,121.834145 
	C53.590908,122.814659 55.073620,123.283943 56.454430,124.050308 
z"/>
<path fill="#9F9F9F" opacity="1.000000" stroke="none" 
	d="
M121.315125,117.402100 
	C125.995369,118.128410 129.330322,125.669388 127.071091,130.314087 
	C124.876846,132.020798 122.771477,133.409653 120.321571,134.790649 
	C118.374146,133.366928 116.771255,131.951050 115.089218,130.289597 
	C117.076981,125.958801 119.143883,121.873596 121.315125,117.402100 
z"/>
<path fill="#8F8E8E" opacity="1.000000" stroke="none" 
	d="
M133.997375,120.997681 
	C131.150772,115.843582 128.304153,110.689476 125.236160,104.933296 
	C125.004829,103.875107 124.994888,103.418991 124.984955,102.962883 
	C125.351746,99.921669 125.718552,96.880455 126.156151,93.427811 
	C128.710022,98.460197 131.094177,103.952690 133.734497,109.319130 
	C134.561035,110.999077 136.077866,112.339401 137.603531,114.295479 
	C137.954147,115.506660 137.979965,116.257545 138.005783,117.008423 
	C138.005783,117.008423 137.978806,117.013008 137.668640,117.093536 
	C136.238113,118.448601 135.117737,119.723137 133.997375,120.997681 
z"/>
<path fill="#898787" opacity="1.000000" stroke="none" 
	d="
M61.397331,118.840538 
	C58.168034,111.607407 55.213062,104.202148 52.374538,96.752518 
	C51.738148,95.082321 51.509407,93.256790 51.118378,91.088509 
	C53.940407,94.326584 57.126999,97.756607 59.384514,101.716324 
	C60.696491,104.017555 61.899914,104.491753 64.427322,104.027344 
	C63.484829,107.555305 61.381573,110.863213 63.684261,114.862968 
	C64.066925,115.527649 62.421795,117.359749 61.397331,118.840538 
z"/>
<path fill="#929292" opacity="1.000000" stroke="none" 
	d="
M94.001236,63.991631 
	C93.386765,55.547932 92.772079,47.111374 92.465187,38.212486 
	C93.528725,36.865887 94.284462,35.981617 95.040207,35.097347 
	C95.833076,33.820969 96.625938,32.544590 98.070786,31.194157 
	C99.496689,32.101238 100.270630,33.082375 101.044571,34.063511 
	C101.044571,34.063511 101.005196,34.003937 100.730598,34.103714 
	C99.992050,34.845394 99.528099,35.487297 99.064156,36.129204 
	C94.367561,40.360527 94.818207,45.967190 95.063217,51.464352 
	C95.236176,55.345104 95.654205,59.214931 95.575699,63.547054 
	C94.795853,64.003029 94.403137,64.001587 94.010422,64.000145 
	C94.010422,64.000145 94.001007,63.998775 94.001236,63.991631 
z"/>
<path fill="#7C7C7C" opacity="1.000000" stroke="none" 
	d="
M101.419327,34.017906 
	C100.270630,33.082375 99.496689,32.101238 98.374130,31.065851 
	C102.407776,25.250397 108.590714,24.736912 115.529465,25.221706 
	C115.314407,27.255672 114.663216,29.223009 114.013702,31.564579 
	C109.635582,30.777397 105.271294,29.709194 101.419327,34.017906 
z"/>
<path fill="#707070" opacity="1.000000" stroke="none" 
	d="
M46.068619,33.019958 
	C45.078533,36.393692 44.498043,39.967720 42.975571,43.081112 
	C41.630421,45.831886 38.149391,44.846256 34.958767,40.896046 
	C35.887310,39.534286 36.870399,38.092533 38.320885,36.216496 
	C40.837105,33.865318 42.347569,30.529476 46.068619,33.019958 
z"/>
<path fill="#616161" opacity="1.000000" stroke="none" 
	d="
M46.282822,32.901123 
	C42.347569,30.529476 40.837105,33.865318 38.476044,35.902901 
	C38.138939,31.970385 38.114063,27.917181 38.160164,23.182028 
	C38.469677,21.741180 38.708218,20.982285 38.946754,20.223387 
	C42.323399,22.080202 46.620197,23.164263 45.604034,28.881424 
	C45.335682,29.688770 45.342930,30.093426 45.350178,30.498079 
	C45.732460,31.259481 46.114742,32.020882 46.282822,32.901123 
z"/>
<path fill="#ADADAD" opacity="1.000000" stroke="none" 
	d="
M41.352455,134.796005 
	C39.935818,130.583557 38.877621,126.337303 37.765091,121.644966 
	C38.484226,120.319283 39.257690,119.439690 40.511246,118.096085 
	C41.227230,117.482391 41.463127,117.332718 41.699028,117.183037 
	C41.804016,116.908142 41.925549,116.640770 42.246887,116.685577 
	C41.761711,122.897499 43.738365,127.824242 47.783257,132.060364 
	C47.364712,132.400101 47.160465,132.627457 46.990181,132.885315 
	C45.230423,133.510941 43.470661,134.136566 41.352455,134.796005 
z"/>
<path fill="#929292" opacity="1.000000" stroke="none" 
	d="
M91.889587,32.269276 
	C90.084053,31.433489 88.215363,30.470467 86.700020,29.112997 
	C85.469643,28.010798 84.663353,26.435181 83.304268,25.014393 
	C84.985588,22.717472 86.927017,19.238400 90.471977,22.042217 
	C93.693428,24.590158 93.413727,28.356886 91.889587,32.269276 
M90.490677,27.531546 
	C90.490677,27.531546 90.476120,27.489029 90.490677,27.531546 
z"/>
<path fill="#969696" opacity="1.000000" stroke="none" 
	d="
M19.005268,37.996449 
	C17.542046,36.376457 16.005131,34.815948 14.636039,33.119968 
	C13.228717,31.376629 11.985213,29.501047 10.317659,27.412243 
	C11.344533,25.294338 12.723768,23.447525 14.542369,21.893326 
	C16.677641,26.805149 17.169220,32.243435 23.034843,34.026760 
	C23.034843,34.026760 22.967840,34.515961 22.570963,34.783112 
	C21.117813,36.032326 20.061541,37.014385 19.005268,37.996449 
z"/>
<path fill="#A5A5A5" opacity="1.000000" stroke="none" 
	d="
M47.963589,131.917450 
	C43.738365,127.824242 41.761711,122.897499 42.358067,116.495300 
	C42.285988,116.000374 42.216858,116.012978 42.227180,115.973137 
	C48.100464,118.852402 48.291348,125.194054 50.574059,130.580658 
	C49.549282,131.324326 48.756435,131.620895 47.963589,131.917450 
z"/>
<path fill="#8F8E8E" opacity="1.000000" stroke="none" 
	d="
M37.877434,69.615219 
	C33.393799,67.493950 30.883944,62.011086 31.832544,56.363361 
	C33.406944,57.061913 34.829983,58.092422 36.563499,59.255020 
	C40.924915,62.251255 38.019367,65.897049 37.877434,69.615219 
z"/>
<path fill="#8F8E8E" opacity="1.000000" stroke="none" 
	d="
M23.021872,34.046989 
	C17.169220,32.243435 16.677641,26.805149 14.904495,21.695274 
	C15.684484,20.489849 16.541712,19.775093 17.998491,19.066490 
	C19.035305,19.141840 19.472569,19.211037 19.928738,19.680962 
	C20.983673,24.747141 22.019703,29.412592 23.055733,34.078041 
	C23.055731,34.078041 23.008900,34.067223 23.021872,34.046989 
z"/>
<path fill="#868686" opacity="1.000000" stroke="none" 
	d="
M23.339708,33.894077 
	C22.019703,29.412592 20.983673,24.747141 19.970640,19.474051 
	C19.993637,18.866409 20.034676,18.450777 20.034676,18.450777 
	C20.769011,18.308821 21.503347,18.166866 22.639309,18.363892 
	C24.355398,22.122078 25.669861,25.541283 26.984322,28.960487 
	C25.864109,30.543695 24.743896,32.126904 23.339708,33.894077 
z"/>
<path fill="#7C7C7C" opacity="1.000000" stroke="none" 
	d="
M27.290085,28.860001 
	C25.669861,25.541283 24.355398,22.122078 23.014778,18.326260 
	C24.858160,17.735722 26.727697,17.521799 28.818100,18.058743 
	C29.660864,20.905396 30.282766,23.001181 30.904669,25.096966 
	C29.801729,26.317816 28.698788,27.538664 27.290085,28.860001 
z"/>
<path fill="#797979" opacity="1.000000" stroke="none" 
	d="
M31.240944,24.971392 
	C30.282766,23.001181 29.660864,20.905396 29.036572,18.359676 
	C32.110577,18.570120 35.186974,19.230501 38.605064,20.057135 
	C38.708218,20.982285 38.469677,21.741180 38.107632,22.773819 
	C35.848488,23.646982 33.712852,24.246401 31.240944,24.971392 
z"/>
<path fill="#A09B9B" opacity="1.000000" stroke="none" 
	d="
M94.001694,64.457932 
	C94.403137,64.001587 94.795853,64.003029 95.483269,63.998501 
	C95.836121,64.444801 95.894272,64.897064 95.882660,66.002502 
	C95.590675,67.769920 95.368446,68.884163 95.146217,69.998413 
	C95.162842,71.440147 95.179466,72.881882 95.100708,75.035103 
	C95.320946,76.869431 95.636566,77.992279 95.952187,79.115120 
	C95.952187,79.115120 96.050156,79.562134 96.046524,80.134483 
	C95.994583,81.176346 95.946281,81.645851 95.897980,82.115364 
	C95.897980,82.115364 95.490715,82.019791 95.281555,82.020912 
	C94.887283,82.018959 94.702164,82.015892 94.239983,81.681084 
	C93.945518,80.925568 93.928131,80.501778 93.910736,80.077995 
	C93.914627,79.888412 93.918518,79.698837 93.924988,79.006973 
	C93.927567,78.504700 93.912552,78.067451 93.912552,78.067451 
	C93.917458,77.590248 93.922371,77.113045 93.916824,76.069611 
	C93.906364,75.503372 93.892227,75.083992 93.892227,75.083992 
	C93.925804,71.694565 93.959381,68.305138 94.001694,64.457932 
z"/>
<path fill="#FFFFFF" opacity="1.000000" stroke="none" 
	d="
M95.945679,82.574677 
	C95.946281,81.645851 95.994583,81.176346 96.099060,80.357185 
	C96.556404,88.418365 96.957588,96.829201 97.358772,105.240028 
	C96.903641,105.250549 96.448509,105.261070 95.993378,105.271584 
	C95.993378,97.859055 95.993378,90.446526 95.945679,82.574677 
z"/>
<path fill="#676767" opacity="1.000000" stroke="none" 
	d="
M146.893219,83.565506 
	C146.387497,80.247864 145.948105,76.482994 145.719116,72.374893 
	C146.272873,75.727203 146.616196,79.422752 146.893219,83.565506 
z"/>
<path fill="#8F8E8E" opacity="1.000000" stroke="none" 
	d="
M19.007812,38.391411 
	C20.061541,37.014385 21.117813,36.032326 22.500257,35.019657 
	C22.507387,38.074646 22.188343,41.160244 21.892771,44.638611 
	C20.947615,42.949711 19.978985,40.868046 19.007812,38.391411 
z"/>
<path fill="#868686" opacity="1.000000" stroke="none" 
	d="
M133.967545,121.331192 
	C135.117737,119.723137 136.238113,118.448601 137.665741,117.080147 
	C137.158844,118.902863 136.344666,120.819489 134.920044,122.863037 
	C134.141678,122.992470 133.973770,122.995003 133.805847,122.997528 
	C133.849808,122.553253 133.893768,122.108978 133.967545,121.331192 
z"/>
<path fill="#010000" opacity="1.000000" stroke="none" 
	d="
M95.479874,69.960403 
	C95.368446,68.884163 95.590675,67.769920 95.974106,66.332123 
	C98.660828,67.529640 98.665405,68.843445 95.479874,69.960403 
z"/>
<path fill="#010000" opacity="1.000000" stroke="none" 
	d="
M96.243690,78.990509 
	C95.636566,77.992279 95.320946,76.869431 95.077766,75.375641 
	C97.138832,75.744057 99.089912,76.496872 96.243690,78.990509 
z"/>
<path fill="#676767" opacity="1.000000" stroke="none" 
	d="
M145.403442,90.999802 
	C145.018951,90.902840 145.001617,90.731262 144.960968,90.302444 
	C145.360291,89.108932 145.782928,88.172646 146.500671,87.110832 
	C146.454056,88.298607 146.112320,89.611900 145.403442,90.999802 
z"/>
<path fill="#7C7C7C" opacity="1.000000" stroke="none" 
	d="
M94.738007,35.101208 
	C94.284462,35.981617 93.528725,36.865887 92.472214,37.783234 
	C92.266098,36.962391 92.360748,36.108467 92.614082,34.849823 
	C93.327110,34.665092 93.881462,34.885078 94.738007,35.101208 
z"/>
<path fill="#868686" opacity="1.000000" stroke="none" 
	d="
M124.683838,103.141312 
	C124.994888,103.418991 125.004829,103.875107 125.018578,104.673691 
	C124.588028,105.619171 124.153679,106.222183 123.444717,106.923309 
	C123.574310,105.787529 123.978516,104.553642 124.683838,103.141312 
z"/>
<path fill="#7C7C7C" opacity="1.000000" stroke="none" 
	d="
M138.279846,116.906967 
	C137.979965,116.257545 137.954147,115.506660 137.936737,114.379974 
	C138.408035,113.995338 138.870911,113.986504 139.680435,113.985695 
	C139.536026,114.930984 139.044983,115.868248 138.279846,116.906967 
z"/>
<path fill="#969696" opacity="1.000000" stroke="none" 
	d="
M47.783257,132.060364 
	C48.756435,131.620895 49.549282,131.324326 50.644112,130.927979 
	C50.962463,131.031128 50.978836,131.234070 51.003609,131.742294 
	C49.918259,132.350540 48.824497,132.653503 47.360462,132.920898 
	C47.160465,132.627457 47.364712,132.400101 47.783257,132.060364 
z"/>
<path fill="#676767" opacity="1.000000" stroke="none" 
	d="
M129.956177,33.686981 
	C129.367249,33.565216 128.758759,33.117867 128.058380,32.388386 
	C128.539978,31.862787 129.113464,31.619318 129.789810,31.332188 
	C129.844009,32.081264 129.890320,32.721333 129.956177,33.686981 
z"/>
<path fill="#969696" opacity="1.000000" stroke="none" 
	d="
M35.224609,88.256622 
	C35.762772,88.744087 36.371185,89.538094 36.993538,90.659454 
	C36.436604,90.178925 35.865734,89.371048 35.224609,88.256622 
z"/>
<path fill="#969696" opacity="1.000000" stroke="none" 
	d="
M28.018206,79.319191 
	C28.452871,79.521317 28.897640,80.045540 29.206238,80.770874 
	C28.722811,80.528419 28.375559,80.084862 28.018206,79.319191 
z"/>
<path fill="#7C7C7C" opacity="1.000000" stroke="none" 
	d="
M99.400467,36.071648 
	C99.528099,35.487297 99.992050,34.845394 100.760330,34.123497 
	C100.622032,34.700371 100.179405,35.357235 99.400467,36.071648 
z"/>
<path fill="#929292" opacity="1.000000" stroke="none" 
	d="
M79.680542,26.105885 
	C79.651855,26.721384 79.287994,27.282452 78.683426,27.939384 
	C78.743607,27.373985 79.044479,26.712721 79.680542,26.105885 
z"/>
<path fill="#929292" opacity="1.000000" stroke="none" 
	d="
M82.659523,24.969381 
	C82.433655,25.385992 81.904160,25.833569 81.180237,26.124008 
	C81.442505,25.644695 81.899200,25.322521 82.659523,24.969381 
z"/>
<path fill="#8F8E8E" opacity="1.000000" stroke="none" 
	d="
M133.628281,123.211609 
	C133.973770,122.995003 134.141678,122.992470 134.560730,122.970398 
	C134.393616,123.583252 133.975372,124.215645 133.285431,124.941338 
	C133.159409,124.498322 133.305054,123.962006 133.628281,123.211609 
z"/>
<path fill="#797979" opacity="1.000000" stroke="none" 
	d="
M126.112839,53.524651 
	C126.359016,53.751083 126.584320,54.355629 126.573059,55.177685 
	C126.254974,54.897720 126.173470,54.400246 126.112839,53.524651 
z"/>
<path fill="#7C7C7C" opacity="1.000000" stroke="none" 
	d="
M19.730791,18.389950 
	C20.034676,18.450777 19.993637,18.866409 19.951735,19.073322 
	C19.472569,19.211037 19.035305,19.141840 18.270048,19.022278 
	C18.437006,18.757652 18.931955,18.543388 19.730791,18.389950 
z"/>
<path fill="#A5A5A5" opacity="1.000000" stroke="none" 
	d="
M41.423019,117.113190 
	C41.463127,117.332718 41.227230,117.482391 40.615761,117.817955 
	C40.542458,117.683678 40.844730,117.363510 41.423019,117.113190 
z"/>
<path fill="#707070" opacity="1.000000" stroke="none" 
	d="
M45.531528,30.156582 
	C45.342930,30.093426 45.335682,29.688770 45.511902,29.163040 
	C45.701206,29.299669 45.707043,29.557379 45.531528,30.156582 
z"/>
<path fill="#676767" opacity="1.000000" stroke="none" 
	d="
M124.764206,28.761566 
	C124.553490,28.860359 124.377113,28.709938 124.124298,28.388424 
	C124.360283,28.123585 124.610512,28.221924 124.764206,28.761566 
z"/>
<path fill="#707070" opacity="1.000000" stroke="none" 
	d="
M120.334106,42.646614 
	C120.299690,42.383572 120.415833,42.206261 120.520210,42.212933 
	C120.623604,42.219540 120.796295,42.417328 120.789085,42.520863 
	C120.781845,42.624901 120.590294,42.716110 120.334106,42.646614 
z"/>
<path fill="#707070" opacity="1.000000" stroke="none" 
	d="
M122.353386,47.334110 
	C122.616432,47.299686 122.713142,47.410675 122.809853,47.521667 
	C122.602249,47.507618 122.394653,47.493572 122.353386,47.334110 
z"/>
<path fill="#A8A8A8" opacity="1.000000" stroke="none" 
	d="
M75.731903,55.054600 
	C75.991112,55.181198 75.987228,55.375946 75.961624,55.862209 
	C75.939888,56.153725 75.580727,56.116959 75.401077,56.101662 
	C75.303894,55.765163 75.386353,55.443958 75.731903,55.054600 
z"/>
<path fill="#B3B2B2" opacity="1.000000" stroke="none" 
	d="
M93.768730,80.246307 
	C93.928131,80.501778 93.945518,80.925568 93.962578,81.667999 
	C93.850403,81.462639 93.738564,80.938629 93.768730,80.246307 
z"/>
<path fill="#AEAEAE" opacity="1.000000" stroke="none" 
	d="
M93.831772,78.165710 
	C93.912552,78.067451 93.927567,78.504700 93.924164,78.722549 
	C93.706314,78.747704 93.649727,78.522232 93.831772,78.165710 
z"/>
<path fill="#AEAEAE" opacity="1.000000" stroke="none" 
	d="
M93.814575,75.177841 
	C93.892227,75.083992 93.906364,75.503372 93.900650,75.711990 
	C93.691360,75.734818 93.638687,75.518509 93.814575,75.177841 
z"/>
<path fill="#A09B9B" opacity="1.000000" stroke="none" 
	d="
M90.483398,27.510288 
	C90.476120,27.489029 90.490677,27.531546 90.483398,27.510288 
z"/>
</svg>